Amaranth-Italic.ufo
<glyph name="dollar" format="1">
  <advance width="531"/>
  <unicode hex="0024"/>
  <outline>
    <contour>
      <point x="286" y="694" type="line"/>
      <point x="271" y="616" type="line"/>
      <point x="168" y="603"/>
      <point x="103" y="540"/>
      <point x="103" y="454" type="curve" smooth="yes"/>
      <point x="103" y="393"/>
      <point x="124" y="352"/>
      <point x="180" y="318" type="curve" smooth="yes"/>
      <point x="250" y="275" type="line" smooth="yes"/>
      <point x="289" y="251"/>
      <point x="309" y="222"/>
      <point x="309" y="184" type="curve" smooth="yes"/>
      <point x="309" y="130"/>
      <point x="273" y="101"/>
      <point x="200" y="101" type="curve" smooth="yes"/>
      <point x="151" y="101"/>
      <point x="115" y="133"/>
      <point x="94" y="175" type="curve"/>
      <point x="10" y="130" type="line"/>
      <point x="31" y="69"/>
      <point x="86" y="26"/>
      <point x="157" y="13" type="curve"/>
      <point x="140" y="-83" type="line"/>
      <point x="218" y="-83" type="line"/>
      <point x="236" y="12" type="line"/>
      <point x="344" y="26"/>
      <point x="425" y="96"/>
      <point x="425" y="208" type="curve" smooth="yes"/>
      <point x="425" y="270"/>
      <point x="387" y="317"/>
      <point x="343" y="345" type="curve" smooth="yes"/>
      <point x="268" y="391" type="line" smooth="yes"/>
      <point x="236" y="411"/>
      <point x="222" y="431"/>
      <point x="222" y="467" type="curve" smooth="yes"/>
      <point x="222" y="503"/>
      <point x="255" y="531"/>
      <point x="308" y="531" type="curve" smooth="yes"/>
      <point x="366" y="531"/>
      <point x="376" y="495"/>
      <point x="386" y="476" type="curve"/>
      <point x="471" y="522" type="line"/>
      <point x="459" y="559"/>
      <point x="434" y="605"/>
      <point x="350" y="616" type="curve"/>
      <point x="365" y="694" type="line"/>
    </contour>
  </outline>
</glyph>
<glyph name="parenleft" format="1">
  <advance width="375"/>
  <unicode hex="0028"/>
  <outline>
    <contour>
      <point x="55" y="137" type="curve" smooth="yes"/>
      <point x="55" y="-24"/>
      <point x="139" y="-142"/>
      <point x="189" y="-184" type="curve"/>
      <point x="257" y="-123" type="line"/>
      <point x="220" y="-84"/>
      <point x="165" y="4"/>
      <point x="165" y="147" type="curve" smooth="yes"/>
      <point x="165" y="340"/>
      <point x="252" y="544"/>
      <point x="405" y="658" type="curve"/>
      <point x="358" y="726" type="line"/>
      <point x="165" y="593"/>
      <point x="55" y="362"/>
    </contour>
  </outline>
</glyph>
<glyph name="plus" format="1">
  <advance width="517"/>
  <unicode hex="002B"/>
  <outline>
    <contour>
      <point x="244" y="495" type="line"/>
      <point x="215" y="342" type="line"/>
      <point x="72" y="342" type="line"/>
      <point x="55" y="255" type="line"/>
      <point x="199" y="255" type="line"/>
      <point x="169" y="96" type="line"/>
      <point x="260" y="96" type="line"/>
      <point x="290" y="255" type="line"/>
      <point x="435" y="255" type="line"/>
      <point x="451" y="342" type="line"/>
      <point x="307" y="342" type="line"/>
      <point x="336" y="495" type="line"/>
    </contour>
  </outline>
</glyph>
<glyph name="one" format="1">
  <advance width="376"/>
  <unicode hex="0031"/>
  <outline>
    <contour>
      <point x="104" y="0" type="line"/>
      <point x="220" y="0" type="line"/>
      <point x="341" y="626" type="line"/>
      <point x="255" y="626" type="line"/>
      <point x="168" y="545"/>
      <point x="101" y="524"/>
      <point x="30" y="504" type="curve"/>
      <point x="64" y="422" type="line"/>
      <point x="101" y="433"/>
      <point x="151" y="459"/>
      <point x="200" y="492" type="curve"/>
    </contour>
  </outline>
</glyph>
<glyph name="six" format="1">
  <advance width="517"/>
  <unicode hex="0036"/>
  <outline>
    <contour>
      <point x="477" y="607" type="line"/>
      <point x="445" y="624"/>
      <point x="413" y="634"/>
      <point x="365" y="634" type="curve" smooth="yes"/>
      <point x="133" y="634"/>
      <point x="41" y="419"/>
      <point x="41" y="178" type="curve" smooth="yes"/>
      <point x="41" y="57"/>
      <point x="100" y="-13"/>
      <point x="222" y="-13" type="curve" smooth="yes"/>
      <point x="369" y="-13"/>
      <point x="471" y="98"/>
      <point x="471" y="266" type="curve" smooth="yes"/>
      <point x="471" y="343"/>
      <point x="434" y="413"/>
      <point x="321" y="413" type="curve" smooth="yes"/>
      <point x="253" y="413"/>
      <point x="204" y="375"/>
      <point x="178" y="349" type="curve"/>
      <point x="201" y="457"/>
      <point x="254" y="546"/>
      <point x="344" y="546" type="curve" smooth="yes"/>
      <point x="377" y="546"/>
      <point x="417" y="540"/>
      <point x="444" y="528" type="curve"/>
    </contour>
    <contour>
      <point x="283" y="327" type="curve" smooth="yes"/>
      <point x="332" y="327"/>
      <point x="357" y="300"/>
      <point x="357" y="246" type="curve" smooth="yes"/>
      <point x="357" y="156"/>
      <point x="315" y="74"/>
      <point x="238" y="74" type="curve" smooth="yes"/>
      <point x="180" y="74"/>
      <point x="162" y="129"/>
      <point x="162" y="197" type="curve" smooth="yes"/>
      <point x="162" y="224"/>
      <point x="163" y="253"/>
      <point x="166" y="281" type="curve"/>
      <point x="178" y="290"/>
      <point x="232" y="327"/>
    </contour>
  </outline>
</glyph>
<glyph name="eight" format="1">
  <advance width="506"/>
  <unicode hex="0038"/>
  <outline>
    <contour>
      <point x="198" y="-12" type="curve" smooth="yes"/>
      <point x="94" y="-12"/>
      <point x="20" y="32"/>
      <point x="20" y="118" type="curve" smooth="yes"/>
      <point x="20" y="227"/>
      <point x="102" y="290"/>
      <point x="174" y="329" type="curve"/>
      <point x="134" y="356"/>
      <point x="101" y="394"/>
      <point x="101" y="444" type="curve" smooth="yes"/>
      <point x="101" y="551"/>
      <point x="190" y="634"/>
      <point x="325" y="634" type="curve" smooth="yes"/>
      <point x="420" y="634"/>
      <point x="481" y="585"/>
      <point x="481" y="513" type="curve" smooth="yes"/>
      <point x="481" y="422"/>
      <point x="417" y="371"/>
      <point x="351" y="334" type="curve"/>
      <point x="403" y="301"/>
      <point x="440" y="244"/>
      <point x="440" y="185" type="curve" smooth="yes"/>
      <point x="440" y="65"/>
      <point x="322" y="-12"/>
    </contour>
    <contour>
      <point x="138" y="132" type="curve" smooth="yes"/>
      <point x="138" y="96"/>
      <point x="168" y="67"/>
      <point x="220" y="67" type="curve" smooth="yes"/>
      <point x="273" y="67"/>
      <point x="319" y="112"/>
      <point x="319" y="172" type="curve" smooth="yes"/>
      <point x="319" y="218"/>
      <point x="284" y="259"/>
      <point x="254" y="286" type="curve"/>
      <point x="198" y="254"/>
      <point x="138" y="205"/>
    </contour>
    <contour>
      <point x="364" y="495" type="curve" smooth="yes"/>
      <point x="364" y="529"/>
      <point x="347" y="555"/>
      <point x="305" y="555" type="curve" smooth="yes"/>
      <point x="250" y="555"/>
      <point x="216" y="518"/>
      <point x="216" y="458" type="curve" smooth="yes"/>
      <point x="216" y="417"/>
      <point x="242" y="392"/>
      <point x="270" y="376" type="curve"/>
      <point x="317" y="399"/>
      <point x="364" y="431"/>
    </contour>
  </outline>
</glyph>
<glyph name="B" format="1">
  <advance width="550"/>
  <unicode hex="0042"/>
  <outline>
    <contour>
      <point x="15" y="0" type="line"/>
      <point x="36" y="0" type="line" smooth="yes"/>
      <point x="40" y="0"/>
      <point x="136" y="-1"/>
      <point x="205" y="-1" type="curve" smooth="yes"/>
      <point x="371" y="-1"/>
      <point x="498" y="81"/>
      <point x="498" y="219" type="curve" smooth="yes"/>
      <point x="498" y="281"/>
      <point x="469" y="328"/>
      <point x="410" y="353" type="curve"/>
      <point x="482" y="387"/>
      <point x="534" y="447"/>
      <point x="534" y="529" type="curve" smooth="yes"/>
      <point x="534" y="639"/>
      <point x="452" y="675"/>
      <point x="334" y="675" type="curve" smooth="yes"/>
      <point x="294" y="675"/>
      <point x="260" y="670"/>
      <point x="237" y="665" type="curve"/>
      <point x="145" y="673" type="line"/>
    </contour>
    <contour>
      <point x="260" y="304" type="line" smooth="yes"/>
      <point x="349" y="304"/>
      <point x="373" y="265"/>
      <point x="373" y="206" type="curve" smooth="yes"/>
      <point x="373" y="129"/>
      <point x="304" y="79"/>
      <point x="196" y="79" type="curve" smooth="yes"/>
      <point x="146" y="79" type="line"/>
      <point x="189" y="304" type="line"/>
    </contour>
    <contour>
      <point x="304" y="595" type="curve" smooth="yes"/>
      <point x="381" y="595"/>
      <point x="410" y="558"/>
      <point x="410" y="505" type="curve" smooth="yes"/>
      <point x="410" y="441"/>
      <point x="368" y="389"/>
      <point x="246" y="389" type="curve" smooth="yes"/>
      <point x="206" y="389" type="line"/>
      <point x="245" y="591" type="line"/>
      <point x="262" y="594"/>
      <point x="282" y="595"/>
    </contour>
  </outline>
</glyph>
<glyph name="C" format="1">
  <advance width="502"/>
  <unicode hex="0043"/>
  <outline>
    <contour>
      <point x="265" y="0" type="move" name="bottom"/>
    </contour>
    <contour>
      <point x="528" y="578" type="line"/>
      <point x="519" y="631"/>
      <point x="485" y="682"/>
      <point x="393" y="682" type="curve" smooth="yes"/>
      <point x="157" y="682"/>
      <point x="40" y="449"/>
      <point x="40" y="208" type="curve" smooth="yes"/>
      <point x="40" y="68"/>
      <point x="105" y="-13"/>
      <point x="260" y="-13" type="curve" smooth="yes"/>
      <point x="345" y="-13"/>
      <point x="392" y="1"/>
      <point x="437" y="21" type="curve"/>
      <point x="419" y="97" type="line"/>
      <point x="377" y="82"/>
      <point x="353" y="74"/>
      <point x="294" y="74" type="curve" smooth="yes"/>
      <point x="198" y="74"/>
      <point x="168" y="139"/>
      <point x="168" y="226" type="curve" smooth="yes"/>
      <point x="168" y="377"/>
      <point x="231" y="595"/>
      <point x="374" y="595" type="curve" smooth="yes"/>
      <point x="419" y="595"/>
      <point x="433" y="563"/>
      <point x="439" y="538" type="curve"/>
    </contour>
  </outline>
</glyph>
<glyph name="D" format="1">
  <advance width="647"/>
  <unicode hex="0044"/>
  <outline>
    <contour>
      <point x="15" y="0" type="line"/>
      <point x="41" y="0" type="line" smooth="yes"/>
      <point x="44" y="0"/>
      <point x="117" y="-2"/>
      <point x="197" y="-2" type="curve" smooth="yes"/>
      <point x="509" y="-2"/>
      <point x="607" y="193"/>
      <point x="607" y="461" type="curve" smooth="yes"/>
      <point x="607" y="601"/>
      <point x="542" y="682"/>
      <point x="387" y="682" type="curve" smooth="yes"/>
      <point x="336" y="682"/>
      <point x="280" y="676"/>
      <point x="234" y="666" type="curve"/>
      <point x="145" y="673" type="line"/>
    </contour>
    <contour>
      <point x="353" y="595" type="curve" smooth="yes"/>
      <point x="449" y="595"/>
      <point x="479" y="531"/>
      <point x="479" y="444" type="curve" smooth="yes"/>
      <point x="479" y="262"/>
      <point x="416" y="88"/>
      <point x="217" y="88" type="curve" smooth="yes"/>
      <point x="147" y="88" type="line"/>
      <point x="243" y="581" type="line"/>
      <point x="274" y="591"/>
      <point x="310" y="595"/>
    </contour>
  </outline>
</glyph>
<glyph name="J" format="1">
  <advance width="277"/>
  <unicode hex="004A"/>
  <outline>
    <contour>
      <point x="19" y="13" type="line" smooth="yes"/>
      <point x="3" y="-68"/>
      <point x="-32" y="-108"/>
      <point x="-115" y="-147" type="curve"/>
      <point x="-76" y="-223" type="line"/>
      <point x="36" y="-167"/>
      <point x="108" y="-122"/>
      <point x="137" y="25" type="curve" smooth="yes"/>
      <point x="262" y="669" type="line"/>
      <point x="147" y="669" type="line"/>
    </contour>
  </outline>
</glyph>
<glyph name="K" format="1">
  <advance width="561"/>
  <unicode hex="004B"/>
  <outline>
    <contour>
      <point x="568" y="679" type="curve"/>
      <point x="464" y="656" type="line"/>
      <point x="467" y="646"/>
      <point x="470" y="633"/>
      <point x="470" y="621" type="curve" smooth="yes"/>
      <point x="470" y="528"/>
      <point x="328" y="414"/>
      <point x="216" y="373" type="curve"/>
      <point x="213" y="366" type="line"/>
      <point x="272" y="193"/>
      <point x="316" y="71"/>
      <point x="451" y="-103" type="curve"/>
      <point x="547" y="-52" type="line"/>
      <point x="459" y="53"/>
      <point x="371" y="233"/>
      <point x="347" y="337" type="curve"/>
      <point x="429" y="370"/>
      <point x="581" y="487"/>
      <point x="581" y="619" type="curve" smooth="yes"/>
      <point x="581" y="639"/>
      <point x="578" y="660"/>
    </contour>
    <contour>
      <point x="15" y="0" type="line"/>
      <point x="132" y="0" type="line"/>
      <point x="262" y="669" type="line"/>
      <point x="145" y="669" type="line"/>
    </contour>
  </outline>
</glyph>
<glyph name="M" format="1">
  <advance width="812"/>
  <unicode hex="004D"/>
  <outline>
    <contour>
      <point x="571" y="0" type="line"/>
      <point x="689" y="0" type="line"/>
      <point x="764" y="669" type="line"/>
      <point x="671" y="669" type="line"/>
      <point x="428" y="256" type="line" smooth="yes"/>
      <point x="407" y="220"/>
      <point x="387" y="180"/>
      <point x="367" y="143" type="curve"/>
      <point x="362" y="181"/>
      <point x="354" y="222"/>
      <point x="348" y="256" type="curve" smooth="yes"/>
      <point x="265" y="669" type="line"/>
      <point x="171" y="669" type="line"/>
      <point x="10" y="14" type="line"/>
      <point x="126" y="-3" type="line"/>
      <point x="183" y="258" type="line" smooth="yes"/>
      <point x="190" y="288"/>
      <point x="202" y="372"/>
      <point x="212" y="445" type="curve"/>
      <point x="225" y="375"/>
      <point x="240" y="289"/>
      <point x="248" y="255" type="curve" smooth="yes"/>
      <point x="305" y="0" type="line"/>
      <point x="386" y="0" type="line"/>
      <point x="542" y="258" type="line" smooth="yes"/>
      <point x="562" y="290"/>
      <point x="609" y="376"/>
      <point x="645" y="446" type="curve"/>
      <point x="631" y="376"/>
      <point x="615" y="294"/>
      <point x="609" y="255" type="curve" smooth="yes"/>
    </contour>
  </outline>
</glyph>
<glyph name="W" format="1">
  <advance width="839"/>
  <unicode hex="0057"/>
  <outline>
    <contour>
      <point x="469" y="0" type="line"/>
      <point x="561" y="0" type="line"/>
      <point x="899" y="650" type="line"/>
      <point x="784" y="677" type="line"/>
      <point x="608" y="300" type="line" smooth="yes"/>
      <point x="590" y="260"/>
      <point x="573" y="217"/>
      <point x="557" y="178" type="curve"/>
      <point x="557" y="214"/>
      <point x="556" y="256"/>
      <point x="553" y="300" type="curve" smooth="yes"/>
      <point x="523" y="669" type="line"/>
      <point x="421" y="669" type="line"/>
      <point x="248" y="299" type="line" smooth="yes"/>
      <point x="224" y="250"/>
      <point x="208" y="210"/>
      <point x="196" y="174" type="curve"/>
      <point x="196" y="221"/>
      <point x="195" y="272"/>
      <point x="193" y="299" type="curve" smooth="yes"/>
      <point x="168" y="669" type="line"/>
      <point x="45" y="669" type="line"/>
      <point x="109" y="0" type="line"/>
      <point x="201" y="0" type="line"/>
      <point x="382" y="370" type="line" smooth="yes"/>
      <point x="396" y="399"/>
      <point x="413" y="442"/>
      <point x="428" y="485" type="curve"/>
      <point x="429" y="443"/>
      <point x="431" y="399"/>
      <point x="434" y="366" type="curve" smooth="yes"/>
    </contour>
  </outline>
</glyph>
<glyph name="c" format="1">
  <advance width="407"/>
  <unicode hex="0063"/>
  <outline>
    <contour>
      <point x="211" y="0" type="move" name="bottom"/>
    </contour>
    <contour>
      <point x="334" y="97" type="line"/>
      <point x="335" y="97"/>
      <point x="255" y="70"/>
      <point x="220" y="70" type="curve" smooth="yes"/>
      <point x="176" y="70"/>
      <point x="149" y="91"/>
      <point x="149" y="153" type="curve" smooth="yes"/>
      <point x="149" y="264"/>
      <point x="198" y="421"/>
      <point x="286" y="421" type="curve" smooth="yes"/>
      <point x="326" y="421"/>
      <point x="332" y="395"/>
      <point x="343" y="370" type="curve"/>
      <point x="426" y="406" type="line"/>
      <point x="414" y="453"/>
      <point x="385" y="502"/>
      <point x="309" y="502" type="curve" smooth="yes"/>
      <point x="130" y="502"/>
      <point x="30" y="344"/>
      <point x="30" y="156" type="curve" smooth="yes"/>
      <point x="30" y="71"/>
      <point x="71" y="-11"/>
      <point x="197" y="-11" type="curve" smooth="yes"/>
      <point x="279" y="-11"/>
      <point x="358" y="25"/>
      <point x="358" y="25" type="curve"/>
    </contour>
  </outline>
</glyph>
<glyph name="h" format="1">
  <advance width="541"/>
  <unicode hex="0068"/>
  <outline>
    <contour>
      <point x="276" y="725" type="line"/>
      <point x="163" y="705" type="line"/>
      <point x="25" y="0" type="line"/>
      <point x="137" y="0" type="line"/>
      <point x="168" y="160" type="line" smooth="yes"/>
      <point x="189" y="268"/>
      <point x="261" y="408"/>
      <point x="333" y="408" type="curve" smooth="yes"/>
      <point x="374" y="408"/>
      <point x="387" y="383"/>
      <point x="387" y="351" type="curve" smooth="yes"/>
      <point x="387" y="264"/>
      <point x="329" y="164"/>
      <point x="329" y="60" type="curve" smooth="yes"/>
      <point x="329" y="39"/>
      <point x="329" y="22"/>
      <point x="333" y="0" type="curve"/>
      <point x="444" y="0" type="line"/>
      <point x="437" y="31"/>
      <point x="436" y="70"/>
      <point x="436" y="96" type="curve" smooth="yes"/>
      <point x="436" y="175"/>
      <point x="501" y="271"/>
      <point x="501" y="376" type="curve" smooth="yes"/>
      <point x="501" y="450"/>
      <point x="462" y="498"/>
      <point x="374" y="498" type="curve" smooth="yes"/>
      <point x="294" y="498"/>
      <point x="227" y="453"/>
      <point x="188" y="361" type="curve"/>
      <point x="200" y="394"/>
      <point x="230" y="478"/>
      <point x="245" y="558" type="curve" smooth="yes"/>
    </contour>
  </outline>
</glyph>
<glyph name="k" format="1">
  <advance width="530"/>
  <unicode hex="006B"/>
  <outline>
    <contour>
      <point x="167" y="156" type="line" smooth="yes"/>
      <point x="185" y="249"/>
      <point x="240" y="417"/>
      <point x="333" y="417" type="curve" smooth="yes"/>
      <point x="370" y="417"/>
      <point x="383" y="399"/>
      <point x="383" y="364" type="curve" smooth="yes"/>
      <point x="383" y="293"/>
      <point x="254" y="255"/>
      <point x="233" y="250" type="curve"/>
      <point x="232" y="240" type="line"/>
      <point x="264" y="116"/>
      <point x="322" y="-8"/>
      <point x="425" y="-103" type="curve"/>
      <point x="514" y="-53" type="line"/>
      <point x="440" y="33"/>
      <point x="391" y="106"/>
      <point x="357" y="214" type="curve"/>
      <point x="357" y="214"/>
      <point x="500" y="263"/>
      <point x="500" y="383" type="curve" smooth="yes"/>
      <point x="500" y="461"/>
      <point x="443" y="498"/>
      <point x="366" y="498" type="curve" smooth="yes"/>
      <point x="310" y="498"/>
      <point x="251" y="476"/>
      <point x="199" y="392" type="curve"/>
      <point x="214" y="446"/>
      <point x="237" y="515"/>
      <point x="245" y="557" type="curve" smooth="yes"/>
      <point x="276" y="725" type="line"/>
      <point x="163" y="705" type="line"/>
      <point x="25" y="0" type="line"/>
      <point x="137" y="0" type="line"/>
    </contour>
  </outline>
</glyph>
<glyph name="w" format="1">
  <advance width="765"/>
  <unicode hex="0077"/>
  <outline>
    <contour>
      <point x="625" y="473" type="line"/>
      <point x="629" y="459"/>
      <point x="631" y="420"/>
      <point x="631" y="403" type="curve" smooth="yes"/>
      <point x="631" y="266"/>
      <point x="543" y="70"/>
      <point x="451" y="70" type="curve" smooth="yes"/>
      <point x="416" y="70"/>
      <point x="396" y="95"/>
      <point x="397" y="132" type="curve"/>
      <point x="445" y="206"/>
      <point x="472" y="302"/>
      <point x="472" y="396" type="curve" smooth="yes"/>
      <point x="472" y="428"/>
      <point x="467" y="468"/>
      <point x="453" y="497" type="curve"/>
      <point x="357" y="473" type="line"/>
      <point x="361" y="459"/>
      <point x="363" y="420"/>
      <point x="363" y="403" type="curve" smooth="yes"/>
      <point x="363" y="266"/>
      <point x="304" y="70"/>
      <point x="212" y="70" type="curve" smooth="yes"/>
      <point x="176" y="70"/>
      <point x="157" y="95"/>
      <point x="157" y="132" type="curve" smooth="yes"/>
      <point x="157" y="142"/>
      <point x="162" y="180"/>
      <point x="164" y="192" type="curve" smooth="yes"/>
      <point x="221" y="490" type="line"/>
      <point x="112" y="490" type="line"/>
      <point x="54" y="189" type="line" smooth="yes"/>
      <point x="51" y="171"/>
      <point x="45" y="125"/>
      <point x="45" y="106" type="curve" smooth="yes"/>
      <point x="45" y="27"/>
      <point x="93" y="-8"/>
      <point x="177" y="-8" type="curve" smooth="yes"/>
      <point x="241" y="-8"/>
      <point x="282" y="19"/>
      <point x="319" y="49" type="curve"/>
      <point x="336" y="17"/>
      <point x="370" y="-8"/>
      <point x="423" y="-8" type="curve" smooth="yes"/>
      <point x="498" y="-8"/>
      <point x="546" y="9"/>
      <point x="597" y="52" type="curve" smooth="yes"/>
      <point x="685" y="126"/>
      <point x="739" y="268"/>
      <point x="739" y="396" type="curve" smooth="yes"/>
      <point x="739" y="428"/>
      <point x="734" y="468"/>
      <point x="721" y="497" type="curve"/>
    </contour>
  </outline>
</glyph>
<glyph name="x" format="1">
  <advance width="468"/>
  <unicode hex="0078"/>
  <outline>
    <contour>
      <point x="73" y="0" type="line"/>
      <point x="176" y="116" type="line" smooth="yes"/>
      <point x="188" y="129"/>
      <point x="202" y="149"/>
      <point x="218" y="172" type="curve"/>
      <point x="225" y="155"/>
      <point x="231" y="140"/>
      <point x="236" y="129" type="curve" smooth="yes"/>
      <point x="296" y="0" type="line"/>
      <point x="415" y="0" type="line"/>
      <point x="305" y="247" type="line"/>
      <point x="351" y="289"/>
      <point x="398" y="335"/>
      <point x="424" y="376" type="curve" smooth="yes"/>
      <point x="443" y="405"/>
      <point x="448" y="429"/>
      <point x="448" y="448" type="curve" smooth="yes"/>
      <point x="448" y="479"/>
      <point x="437" y="498"/>
      <point x="437" y="497" type="curve"/>
      <point x="342" y="473" type="line"/>
      <point x="345" y="461"/>
      <point x="346" y="451"/>
      <point x="346" y="444" type="curve" smooth="yes"/>
      <point x="346" y="431"/>
      <point x="337" y="415"/>
      <point x="322" y="394" type="curve" smooth="yes"/>
      <point x="306" y="373"/>
      <point x="285" y="348"/>
      <point x="261" y="325" type="curve"/>
      <point x="253" y="344"/>
      <point x="243" y="368"/>
      <point x="231" y="393" type="curve" smooth="yes"/>
      <point x="183" y="490" type="line"/>
      <point x="65" y="490" type="line"/>
      <point x="177" y="261" type="line"/>
      <point x="-55" y="0" type="line"/>
    </contour>
  </outline>
</glyph>
<glyph name="exclamdown" format="1">
  <advance width="330"/>
  <unicode hex="00A1"/>
  <outline>
    <contour>
      <point x="224" y="267" type="line"/>
      <point x="128" y="267" type="line"/>
      <point x="16" y="-182" type="line"/>
      <point x="140" y="-182" type="line"/>
    </contour>
    <contour>
      <point x="193" y="344" type="curve" smooth="yes"/>
      <point x="244" y="344"/>
      <point x="275" y="383"/>
      <point x="275" y="428" type="curve" smooth="yes"/>
      <point x="275" y="469"/>
      <point x="253" y="498"/>
      <point x="207" y="498" type="curve" smooth="yes"/>
      <point x="156" y="498"/>
      <point x="124" y="459"/>
      <point x="124" y="414" type="curve" smooth="yes"/>
      <point x="124" y="371"/>
      <point x="147" y="344"/>
    </contour>
  </outline>
</glyph>
<glyph name="yen" format="1">
  <advance width="544"/>
  <unicode hex="00A5"/>
  <outline>
    <contour>
      <point x="140" y="0" type="line"/>
      <point x="255" y="0" type="line"/>
      <point x="274" y="103" type="line"/>
      <point x="393" y="103" type="line"/>
      <point x="410" y="191" type="line"/>
      <point x="291" y="191" type="line"/>
      <point x="303" y="253" type="line"/>
      <point x="422" y="253" type="line"/>
      <point x="439" y="341" type="line"/>
      <point x="360" y="341" type="line"/>
      <point x="544" y="590" type="line"/>
      <point x="454" y="634" type="line"/>
      <point x="260" y="352" type="line"/>
      <point x="181" y="626" type="line"/>
      <point x="66" y="626" type="line"/>
      <point x="167" y="341" type="line"/>
      <point x="92" y="341" type="line"/>
      <point x="74" y="253" type="line"/>
      <point x="188" y="253" type="line"/>
      <point x="176" y="191" type="line"/>
      <point x="62" y="191" type="line"/>
      <point x="45" y="103" type="line"/>
      <point x="159" y="103" type="line"/>
    </contour>
  </outline>
</glyph>
<glyph name="copyright" format="1">
  <advance width="757"/>
  <unicode hex="00A9"/>
  <outline>
    <contour>
      <point x="35" y="261" type="curve" smooth="yes"/>
      <point x="35" y="102"/>
      <point x="140" y="-6"/>
      <point x="309" y="-6" type="curve" smooth="yes"/>
      <point x="550" y="-6"/>
      <point x="722" y="178"/>
      <point x="722" y="419" type="curve" smooth="yes"/>
      <point x="722" y="579"/>
      <point x="617" y="686"/>
      <point x="447" y="686" type="curve" smooth="yes"/>
      <point x="206" y="686"/>
      <point x="35" y="504"/>
    </contour>
    <contour>
      <point x="429" y="612" type="curve" smooth="yes"/>
      <point x="565" y="612"/>
      <point x="635" y="527"/>
      <point x="635" y="396" type="curve" smooth="yes"/>
      <point x="635" y="198"/>
      <point x="477" y="67"/>
      <point x="326" y="67" type="curve" smooth="yes"/>
      <point x="192" y="67"/>
      <point x="120" y="153"/>
      <point x="120" y="285" type="curve" smooth="yes"/>
      <point x="120" y="481"/>
      <point x="281" y="612"/>
    </contour>
    <contour>
      <point x="440" y="228" type="line"/>
      <point x="425" y="220"/>
      <point x="406" y="213"/>
      <point x="379" y="213" type="curve" smooth="yes"/>
      <point x="341" y="213"/>
      <point x="325" y="246"/>
      <point x="325" y="292" type="curve" smooth="yes"/>
      <point x="325" y="364"/>
      <point x="358" y="472"/>
      <point x="421" y="472" type="curve" smooth="yes"/>
      <point x="446" y="472"/>
      <point x="457" y="464"/>
      <point x="467" y="447" type="curve"/>
      <point x="523" y="496" type="line"/>
      <point x="515" y="518"/>
      <point x="486" y="545"/>
      <point x="444" y="545" type="curve" smooth="yes"/>
      <point x="308" y="545"/>
      <point x="232" y="413"/>
      <point x="232" y="273" type="curve" smooth="yes"/>
      <point x="232" y="187"/>
      <point x="272" y="143"/>
      <point x="353" y="143" type="curve" smooth="yes"/>
      <point x="397" y="143"/>
      <point x="426" y="153"/>
      <point x="458" y="167" type="curve"/>
    </contour>
  </outline>
</glyph>
<glyph name="registered" format="1">
  <advance width="580"/>
  <unicode hex="00AE"/>
  <outline>
    <contour>
      <point x="75" y="402" type="curve" smooth="yes"/>
      <point x="75" y="294"/>
      <point x="144" y="222"/>
      <point x="259" y="222" type="curve" smooth="yes"/>
      <point x="427" y="222"/>
      <point x="535" y="357"/>
      <point x="535" y="506" type="curve" smooth="yes"/>
      <point x="535" y="614"/>
      <point x="466" y="686"/>
      <point x="351" y="686" type="curve" smooth="yes"/>
      <point x="183" y="686"/>
      <point x="75" y="551"/>
    </contour>
    <contour>
      <point x="338" y="629" type="curve" smooth="yes"/>
      <point x="421" y="629"/>
      <point x="470" y="570"/>
      <point x="470" y="491" type="curve" smooth="yes"/>
      <point x="470" y="380"/>
      <point x="380" y="279"/>
      <point x="272" y="279" type="curve" smooth="yes"/>
      <point x="192" y="279"/>
      <point x="140" y="337"/>
      <point x="140" y="417" type="curve" smooth="yes"/>
      <point x="140" y="528"/>
      <point x="230" y="629"/>
    </contour>
    <contour>
      <point x="386" y="344" type="line"/>
      <point x="363" y="379"/>
      <point x="344" y="417"/>
      <point x="336" y="446" type="curve"/>
      <point x="372" y="463"/>
      <point x="398" y="488"/>
      <point x="398" y="525" type="curve" smooth="yes"/>
      <point x="398" y="565"/>
      <point x="364" y="581"/>
      <point x="322" y="581" type="curve" smooth="yes"/>
      <point x="312" y="581"/>
      <point x="297" y="579"/>
      <point x="283" y="578" type="curve"/>
      <point x="249" y="583" type="line"/>
      <point x="200" y="325" type="line"/>
      <point x="252" y="325" type="line"/>
      <point x="272" y="433" type="line"/>
      <point x="278" y="433"/>
      <point x="285" y="433"/>
      <point x="291" y="434" type="curve"/>
      <point x="307" y="389"/>
      <point x="321" y="356"/>
      <point x="346" y="316" type="curve"/>
    </contour>
    <contour>
      <point x="308" y="549" type="line" smooth="yes"/>
      <point x="330" y="549"/>
      <point x="344" y="535"/>
      <point x="344" y="516" type="curve" smooth="yes"/>
      <point x="344" y="485"/>
      <point x="325" y="471"/>
      <point x="300" y="465" type="curve" smooth="yes"/>
      <point x="294" y="464"/>
      <point x="279" y="463"/>
      <point x="276" y="463" type="curve"/>
      <point x="293" y="550" type="line"/>
    </contour>
  </outline>
</glyph>
<glyph name="cedilla" format="1">
  <advance width="480"/>
  <unicode hex="00B8"/>
  <outline>
    <contour>
      <point x="257" y="0" type="move" name="_bottom"/>
    </contour>
    <contour>
      <point x="231" y="3" type="line"/>
      <point x="215" y="-22"/>
      <point x="206" y="-40"/>
      <point x="206" y="-54" type="curve" smooth="yes"/>
      <point x="206" y="-99"/>
      <point x="276" y="-93"/>
      <point x="276" y="-132" type="curve" smooth="yes"/>
      <point x="276" y="-151"/>
      <point x="252" y="-159"/>
      <point x="227" y="-159" type="curve" smooth="yes"/>
      <point x="199" y="-159"/>
      <point x="177" y="-147"/>
      <point x="160" y="-136" type="curve"/>
      <point x="131" y="-191" type="line"/>
      <point x="158" y="-209"/>
      <point x="193" y="-219"/>
      <point x="227" y="-219" type="curve" smooth="yes"/>
      <point x="290" y="-219"/>
      <point x="354" y="-194"/>
      <point x="354" y="-121" type="curve" smooth="yes"/>
      <point x="354" y="-68"/>
      <point x="280" y="-62"/>
      <point x="280" y="-33" type="curve" smooth="yes"/>
      <point x="280" y="-25"/>
      <point x="284" y="-8"/>
      <point x="295" y="3" type="curve"/>
    </contour>
  </outline>
</glyph>
<glyph name="onehalf" format="1">
  <advance width="788"/>
  <unicode hex="00BD"/>
  <outline>
    <contour>
      <point x="116" y="0" type="line"/>
      <point x="215" y="0" type="line"/>
      <point x="591" y="587" type="line"/>
      <point x="491" y="587" type="line"/>
    </contour>
    <contour>
      <point x="122" y="235" type="line"/>
      <point x="208" y="235" type="line"/>
      <point x="273" y="585" type="line"/>
      <point x="207" y="585" type="line"/>
      <point x="159" y="541"/>
      <point x="122" y="529"/>
      <point x="81" y="518" type="curve"/>
      <point x="110" y="452" type="line"/>
      <point x="127" y="457"/>
      <point x="148" y="470"/>
      <point x="169" y="486" type="curve"/>
    </contour>
    <contour>
      <point x="509" y="251" type="line"/>
      <point x="547" y="269"/>
      <point x="570" y="283"/>
      <point x="593" y="283" type="curve" smooth="yes"/>
      <point x="610" y="283"/>
      <point x="616" y="271"/>
      <point x="616" y="257" type="curve" smooth="yes"/>
      <point x="616" y="229"/>
      <point x="595" y="209"/>
      <point x="535" y="158" type="curve" smooth="yes"/>
      <point x="436" y="73" type="line"/>
      <point x="436" y="0" type="line"/>
      <point x="657" y="0" type="line"/>
      <point x="671" y="73" type="line"/>
      <point x="547" y="73" type="line"/>
      <point x="590" y="109" type="line" smooth="yes"/>
      <point x="658" y="166"/>
      <point x="711" y="209"/>
      <point x="711" y="274" type="curve" smooth="yes"/>
      <point x="711" y="324"/>
      <point x="667" y="354"/>
      <point x="606" y="354" type="curve" smooth="yes"/>
      <point x="567" y="354"/>
      <point x="530" y="342"/>
      <point x="484" y="320" type="curve"/>
    </contour>
  </outline>
</glyph>
<glyph name="Atilde" format="1">
  <advance width="570"/>
  <unicode hex="00C3"/>
  <outline>
    <contour>
      <point x="-40" y="19" type="line"/>
      <point x="75" y="-8" type="line"/>
      <point x="169" y="180" type="line"/>
      <point x="394" y="180" type="line"/>
      <point x="422" y="0" type="line"/>
      <point x="545" y="0" type="line"/>
      <point x="417" y="669" type="line"/>
      <point x="325" y="669" type="line"/>
    </contour>
    <contour>
      <point x="381" y="263" type="curve"/>
      <point x="210" y="263" type="line"/>
      <point x="266" y="374"/>
      <point x="317" y="471"/>
      <point x="347" y="529" type="curve"/>
      <point x="353" y="474"/>
      <point x="364" y="376"/>
    </contour>
    <contour>
      <point x="228" y="756" type="line"/>
      <point x="228" y="756"/>
      <point x="266" y="771"/>
      <point x="312" y="771" type="curve" smooth="yes"/>
      <point x="362" y="771"/>
      <point x="415" y="750"/>
      <point x="464" y="750" type="curve" smooth="yes"/>
      <point x="511" y="750"/>
      <point x="550" y="774"/>
      <point x="550" y="774" type="curve"/>
      <point x="566" y="854" type="line"/>
      <point x="566" y="854"/>
      <point x="528" y="839"/>
      <point x="481" y="839" type="curve" smooth="yes"/>
      <point x="432" y="839"/>
      <point x="379" y="860"/>
      <point x="329" y="860" type="curve" smooth="yes"/>
      <point x="283" y="860"/>
      <point x="244" y="836"/>
      <point x="244" y="836" type="curve"/>
    </contour>
  </outline>
</glyph>
<glyph name="Aring" format="1">
  <advance width="570"/>
  <unicode hex="00C5"/>
  <outline>
    <contour>
      <point x="-40" y="19" type="line"/>
      <point x="75" y="-8" type="line"/>
      <point x="169" y="180" type="line"/>
      <point x="394" y="180" type="line"/>
      <point x="422" y="0" type="line"/>
      <point x="545" y="0" type="line"/>
      <point x="423" y="637" type="line"/>
      <point x="457" y="659"/>
      <point x="478" y="700"/>
      <point x="478" y="742" type="curve" smooth="yes"/>
      <point x="478" y="788"/>
      <point x="448" y="820"/>
      <point x="400" y="820" type="curve" smooth="yes"/>
      <point x="330" y="820"/>
      <point x="282" y="760"/>
      <point x="282" y="696" type="curve" smooth="yes"/>
      <point x="282" y="671"/>
      <point x="291" y="650"/>
      <point x="307" y="636" type="curve"/>
    </contour>
    <contour>
      <point x="381" y="263" type="curve"/>
      <point x="210" y="263" type="line"/>
      <point x="266" y="374"/>
      <point x="317" y="471"/>
      <point x="347" y="529" type="curve"/>
      <point x="353" y="474"/>
      <point x="364" y="376"/>
    </contour>
    <contour>
      <point x="389" y="769" type="curve" smooth="yes"/>
      <point x="411" y="769"/>
      <point x="424" y="754"/>
      <point x="424" y="733" type="curve" smooth="yes"/>
      <point x="424" y="698"/>
      <point x="401" y="669"/>
      <point x="370" y="669" type="curve" smooth="yes"/>
      <point x="349" y="669"/>
      <point x="336" y="684"/>
      <point x="336" y="705" type="curve" smooth="yes"/>
      <point x="336" y="737"/>
      <point x="356" y="769"/>
    </contour>
  </outline>
</glyph>
<glyph name="AE" format="1">
  <advance width="808"/>
  <unicode hex="00C6"/>
  <outline>
    <contour>
      <point x="338" y="0" type="line"/>
      <point x="726" y="0" type="line"/>
      <point x="726" y="84" type="line"/>
      <point x="469" y="84" type="line"/>
      <point x="513" y="310" type="line"/>
      <point x="708" y="310" type="line"/>
      <point x="726" y="393" type="line"/>
      <point x="529" y="393" type="line"/>
      <point x="566" y="585" type="line"/>
      <point x="815" y="585" type="line"/>
      <point x="832" y="669" type="line"/>
      <point x="400" y="669" type="line"/>
      <point x="-45" y="20" type="line"/>
      <point x="73" y="-13" type="line"/>
      <point x="199" y="185" type="line"/>
      <point x="374" y="185" type="line"/>
    </contour>
    <contour>
      <point x="265" y="286" type="line" smooth="yes"/>
      <point x="376" y="459"/>
      <point x="444" y="580"/>
      <point x="447" y="585" type="curve"/>
      <point x="451" y="585" type="line"/>
      <point x="390" y="269" type="line"/>
      <point x="254" y="269" type="line"/>
    </contour>
  </outline>
</glyph>
<glyph name="Egrave" format="1">
  <advance width="506"/>
  <unicode hex="00C8"/>
  <outline>
    <contour>
      <point x="15" y="0" type="line"/>
      <point x="424" y="0" type="line"/>
      <point x="424" y="84" type="line"/>
      <point x="147" y="84" type="line"/>
      <point x="191" y="310" type="line"/>
      <point x="406" y="310" type="line"/>
      <point x="424" y="393" type="line"/>
      <point x="207" y="393" type="line"/>
      <point x="244" y="585" type="line"/>
      <point x="513" y="585" type="line"/>
      <point x="530" y="669" type="line"/>
      <point x="145" y="669" type="line"/>
    </contour>
    <contour>
      <point x="368" y="766" type="line"/>
      <point x="368" y="766"/>
      <point x="256" y="834"/>
      <point x="190" y="921" type="curve"/>
      <point x="146" y="888"/>
      <point x="129" y="843"/>
      <point x="129" y="843" type="curve"/>
      <point x="193" y="758"/>
      <point x="332" y="712"/>
      <point x="332" y="712" type="curve"/>
    </contour>
  </outline>
</glyph>
<glyph name="Eacute" format="1">
  <advance width="506"/>
  <unicode hex="00C9"/>
  <outline>
    <contour>
      <point x="15" y="0" type="line"/>
      <point x="424" y="0" type="line"/>
      <point x="424" y="84" type="line"/>
      <point x="147" y="84" type="line"/>
      <point x="191" y="310" type="line"/>
      <point x="406" y="310" type="line"/>
      <point x="424" y="393" type="line"/>
      <point x="207" y="393" type="line"/>
      <point x="244" y="585" type="line"/>
      <point x="513" y="585" type="line"/>
      <point x="530" y="669" type="line"/>
      <point x="145" y="669" type="line"/>
    </contour>
    <contour>
      <point x="323" y="713" type="line"/>
      <point x="323" y="713"/>
      <point x="457" y="807"/>
      <point x="541" y="842" type="curve"/>
      <point x="535" y="879"/>
      <point x="492" y="921"/>
      <point x="492" y="921" type="curve"/>
      <point x="403" y="879"/>
      <point x="287" y="771"/>
      <point x="287" y="771" type="curve"/>
    </contour>
  </outline>
</glyph>
<glyph name="Ecircumflex" format="1">
  <advance width="506"/>
  <unicode hex="00CA"/>
  <outline>
    <contour>
      <point x="15" y="0" type="line"/>
      <point x="424" y="0" type="line"/>
      <point x="424" y="84" type="line"/>
      <point x="147" y="84" type="line"/>
      <point x="191" y="310" type="line"/>
      <point x="406" y="310" type="line"/>
      <point x="424" y="393" type="line"/>
      <point x="207" y="393" type="line"/>
      <point x="244" y="585" type="line"/>
      <point x="513" y="585" type="line"/>
      <point x="530" y="669" type="line"/>
      <point x="145" y="669" type="line"/>
    </contour>
    <contour>
      <point x="190" y="705" type="line"/>
      <point x="190" y="705"/>
      <point x="273" y="756"/>
      <point x="349" y="797" type="curve"/>
      <point x="413" y="738"/>
      <point x="491" y="703"/>
      <point x="491" y="703" type="curve"/>
      <point x="528" y="758" type="line"/>
      <point x="528" y="758"/>
      <point x="439" y="832"/>
      <point x="369" y="913" type="curve"/>
      <point x="280" y="871"/>
      <point x="154" y="763"/>
      <point x="154" y="763" type="curve"/>
    </contour>
  </outline>
</glyph>
<glyph name="Edieresis" format="1">
  <advance width="506"/>
  <unicode hex="00CB"/>
  <outline>
    <contour>
      <point x="15" y="0" type="line"/>
      <point x="424" y="0" type="line"/>
      <point x="424" y="84" type="line"/>
      <point x="147" y="84" type="line"/>
      <point x="191" y="310" type="line"/>
      <point x="406" y="310" type="line"/>
      <point x="424" y="393" type="line"/>
      <point x="207" y="393" type="line"/>
      <point x="244" y="585" type="line"/>
      <point x="513" y="585" type="line"/>
      <point x="530" y="669" type="line"/>
      <point x="145" y="669" type="line"/>
    </contour>
    <contour>
      <point x="263" y="860" type="curve" smooth="yes"/>
      <point x="223" y="860"/>
      <point x="198" y="828"/>
      <point x="198" y="792" type="curve" smooth="yes"/>
      <point x="198" y="759"/>
      <point x="215" y="735"/>
      <point x="253" y="735" type="curve" smooth="yes"/>
      <point x="294" y="735"/>
      <point x="320" y="766"/>
      <point x="320" y="801" type="curve" smooth="yes"/>
      <point x="320" y="837"/>
      <point x="302" y="860"/>
    </contour>
    <contour>
      <point x="452" y="860" type="curve" smooth="yes"/>
      <point x="412" y="860"/>
      <point x="387" y="828"/>
      <point x="387" y="792" type="curve" smooth="yes"/>
      <point x="387" y="759"/>
      <point x="404" y="735"/>
      <point x="442" y="735" type="curve" smooth="yes"/>
      <point x="483" y="735"/>
      <point x="509" y="766"/>
      <point x="509" y="801" type="curve" smooth="yes"/>
      <point x="509" y="837"/>
      <point x="491" y="860"/>
    </contour>
  </outline>
</glyph>
<glyph name="ae" format="1">
  <advance width="753"/>
  <unicode hex="00E6"/>
  <outline>
    <contour>
      <point x="163" y="-8" type="curve" smooth="yes"/>
      <point x="228" y="-8"/>
      <point x="286" y="20"/>
      <point x="330" y="110" type="curve"/>
      <point x="344" y="43"/>
      <point x="389" y="-11"/>
      <point x="493" y="-11" type="curve" smooth="yes"/>
      <point x="590" y="-11"/>
      <point x="691" y="39"/>
      <point x="691" y="39" type="curve"/>
      <point x="668" y="111" type="line"/>
      <point x="668" y="111"/>
      <point x="568" y="70"/>
      <point x="515" y="70" type="curve" smooth="yes"/>
      <point x="472" y="70"/>
      <point x="443" y="91"/>
      <point x="443" y="153" type="curve" smooth="yes"/>
      <point x="443" y="166"/>
      <point x="448" y="183"/>
      <point x="449" y="188" type="curve"/>
      <point x="624" y="198"/>
      <point x="749" y="279"/>
      <point x="749" y="394" type="curve" smooth="yes"/>
      <point x="749" y="460"/>
      <point x="708" y="502"/>
      <point x="605" y="502" type="curve" smooth="yes"/>
      <point x="548" y="502"/>
      <point x="499" y="486"/>
      <point x="459" y="458" type="curve"/>
      <point x="424" y="482"/>
      <point x="362" y="498"/>
      <point x="311" y="498" type="curve" smooth="yes"/>
      <point x="131" y="498"/>
      <point x="30" y="346"/>
      <point x="30" y="157" type="curve" smooth="yes"/>
      <point x="30" y="74"/>
      <point x="68" y="-8"/>
    </contour>
    <contour>
      <point x="200" y="74" type="curve" smooth="yes"/>
      <point x="166" y="74"/>
      <point x="149" y="95"/>
      <point x="149" y="153" type="curve" smooth="yes"/>
      <point x="149" y="268"/>
      <point x="193" y="421"/>
      <point x="313" y="421" type="curve" smooth="yes"/>
      <point x="331" y="421"/>
      <point x="354" y="419"/>
      <point x="370" y="411" type="curve"/>
      <point x="356" y="342" type="line" smooth="yes"/>
      <point x="335" y="242"/>
      <point x="268" y="74"/>
    </contour>
    <contour>
      <point x="582" y="425" type="curve" smooth="yes"/>
      <point x="620" y="425"/>
      <point x="636" y="407"/>
      <point x="636" y="376" type="curve" smooth="yes"/>
      <point x="636" y="330"/>
      <point x="575" y="267"/>
      <point x="457" y="260" type="curve"/>
      <point x="475" y="344"/>
      <point x="521" y="425"/>
    </contour>
  </outline>
</glyph>
<glyph name="eacute" format="1">
  <advance width="458"/>
  <unicode hex="00E9"/>
  <outline>
    <contour>
      <point x="30" y="156" type="curve" smooth="yes"/>
      <point x="30" y="71"/>
      <point x="71" y="-11"/>
      <point x="197" y="-11" type="curve" smooth="yes"/>
      <point x="294" y="-11"/>
      <point x="395" y="39"/>
      <point x="395" y="39" type="curve"/>
      <point x="372" y="111" type="line"/>
      <point x="372" y="111"/>
      <point x="272" y="70"/>
      <point x="220" y="70" type="curve" smooth="yes"/>
      <point x="176" y="70"/>
      <point x="147" y="91"/>
      <point x="147" y="153" type="curve" smooth="yes"/>
      <point x="147" y="164"/>
      <point x="147" y="176"/>
      <point x="148" y="188" type="curve"/>
      <point x="326" y="197"/>
      <point x="453" y="278"/>
      <point x="453" y="394" type="curve" smooth="yes"/>
      <point x="453" y="460"/>
      <point x="412" y="502"/>
      <point x="309" y="502" type="curve" smooth="yes"/>
      <point x="130" y="502"/>
      <point x="30" y="345"/>
    </contour>
    <contour>
      <point x="286" y="425" type="curve" smooth="yes"/>
      <point x="324" y="425"/>
      <point x="340" y="407"/>
      <point x="340" y="376" type="curve" smooth="yes"/>
      <point x="340" y="329"/>
      <point x="279" y="267"/>
      <point x="160" y="260" type="curve"/>
      <point x="181" y="346"/>
      <point x="224" y="425"/>
    </contour>
    <contour>
      <point x="311" y="539" type="line"/>
      <point x="311" y="539"/>
      <point x="427" y="655"/>
      <point x="502" y="705" type="curve"/>
      <point x="490" y="740"/>
      <point x="440" y="774"/>
      <point x="440" y="774" type="curve"/>
      <point x="360" y="717"/>
      <point x="266" y="591"/>
      <point x="266" y="591" type="curve"/>
    </contour>
  </outline>
</glyph>
<glyph name="icircumflex" format="1">
  <advance width="274"/>
  <unicode hex="00EE"/>
  <outline>
    <contour>
      <point x="128" y="-5" type="curve" smooth="yes"/>
      <point x="181" y="-5"/>
      <point x="218" y="13"/>
      <point x="218" y="13" type="curve"/>
      <point x="218" y="85" type="line"/>
      <point x="218" y="85"/>
      <point x="190" y="77"/>
      <point x="167" y="77" type="curve" smooth="yes"/>
      <point x="154" y="77"/>
      <point x="150" y="86"/>
      <point x="150" y="102" type="curve" smooth="yes"/>
      <point x="150" y="107"/>
      <point x="151" y="112"/>
      <point x="152" y="118" type="curve" smooth="yes"/>
      <point x="224" y="490" type="line"/>
      <point x="114" y="490" type="line"/>
      <point x="38" y="108" type="line" smooth="yes"/>
      <point x="36" y="98"/>
      <point x="35" y="88"/>
      <point x="35" y="79" type="curve" smooth="yes"/>
      <point x="35" y="28"/>
      <point x="69" y="-5"/>
    </contour>
    <contour>
      <point x="88" y="527" type="line"/>
      <point x="88" y="527"/>
      <point x="145" y="569"/>
      <point x="194" y="615" type="curve"/>
      <point x="229" y="565"/>
      <point x="263" y="528"/>
      <point x="263" y="528" type="curve"/>
      <point x="315" y="563" type="line"/>
      <point x="315" y="563"/>
      <point x="275" y="667"/>
      <point x="222" y="762" type="curve"/>
      <point x="141" y="690"/>
      <point x="42" y="567"/>
      <point x="42" y="567" type="curve"/>
    </contour>
  </outline>
</glyph>
<glyph name="ntilde" format="1">
  <advance width="551"/>
  <unicode hex="00F1"/>
  <outline>
    <contour>
      <point x="511" y="376" type="curve" smooth="yes"/>
      <point x="511" y="450"/>
      <point x="472" y="498"/>
      <point x="384" y="498" type="curve" smooth="yes"/>
      <point x="304" y="498"/>
      <point x="238" y="453"/>
      <point x="198" y="361" type="curve" smooth="yes"/>
      <point x="181" y="321" type="line"/>
      <point x="189" y="394"/>
      <point x="190" y="387"/>
      <point x="190" y="415" type="curve" smooth="yes"/>
      <point x="190" y="456"/>
      <point x="179" y="482"/>
      <point x="164" y="500" type="curve"/>
      <point x="73" y="464" type="line"/>
      <point x="79" y="454"/>
      <point x="98" y="424"/>
      <point x="98" y="351" type="curve" smooth="yes"/>
      <point x="98" y="324"/>
      <point x="95" y="291"/>
      <point x="87" y="252" type="curve" smooth="yes"/>
      <point x="36" y="0" type="line"/>
      <point x="147" y="0" type="line"/>
      <point x="178" y="159" type="line" smooth="yes"/>
      <point x="199" y="268"/>
      <point x="272" y="408"/>
      <point x="344" y="408" type="curve" smooth="yes"/>
      <point x="384" y="408"/>
      <point x="398" y="383"/>
      <point x="398" y="351" type="curve" smooth="yes"/>
      <point x="398" y="264"/>
      <point x="339" y="164"/>
      <point x="339" y="60" type="curve" smooth="yes"/>
      <point x="339" y="42"/>
      <point x="339" y="22"/>
      <point x="343" y="0" type="curve"/>
      <point x="455" y="0" type="line"/>
      <point x="448" y="31"/>
      <point x="446" y="70"/>
      <point x="446" y="96" type="curve" smooth="yes"/>
      <point x="446" y="175"/>
      <point x="511" y="271"/>
    </contour>
    <contour>
      <point x="554" y="680" type="line"/>
      <point x="554" y="680"/>
      <point x="518" y="666"/>
      <point x="474" y="666" type="curve" smooth="yes"/>
      <point x="427" y="666"/>
      <point x="376" y="686"/>
      <point x="329" y="686" type="curve" smooth="yes"/>
      <point x="285" y="686"/>
      <point x="248" y="663"/>
      <point x="248" y="663" type="curve"/>
      <point x="234" y="589" type="line"/>
      <point x="234" y="589"/>
      <point x="269" y="603"/>
      <point x="313" y="603" type="curve" smooth="yes"/>
      <point x="360" y="603"/>
      <point x="411" y="583"/>
      <point x="458" y="583" type="curve" smooth="yes"/>
      <point x="502" y="583"/>
      <point x="539" y="606"/>
      <point x="539" y="606" type="curve"/>
    </contour>
  </outline>
</glyph>
<glyph name="ograve" format="1">
  <advance width="506"/>
  <unicode hex="00F2"/>
  <outline>
    <contour>
      <point x="309" y="502" type="curve" smooth="yes"/>
      <point x="130" y="502"/>
      <point x="30" y="345"/>
      <point x="30" y="156" type="curve" smooth="yes"/>
      <point x="30" y="71"/>
      <point x="71" y="-11"/>
      <point x="197" y="-11" type="curve" smooth="yes"/>
      <point x="377" y="-11"/>
      <point x="476" y="144"/>
      <point x="476" y="335" type="curve" smooth="yes"/>
      <point x="476" y="420"/>
      <point x="436" y="502"/>
    </contour>
    <contour>
      <point x="286" y="425" type="curve" smooth="yes"/>
      <point x="330" y="425"/>
      <point x="357" y="404"/>
      <point x="357" y="342" type="curve" smooth="yes"/>
      <point x="357" y="232"/>
      <point x="308" y="66"/>
      <point x="220" y="66" type="curve" smooth="yes"/>
      <point x="176" y="66"/>
      <point x="149" y="87"/>
      <point x="149" y="149" type="curve" smooth="yes"/>
      <point x="149" y="260"/>
      <point x="198" y="425"/>
    </contour>
    <contour>
      <point x="350" y="585" type="line"/>
      <point x="350" y="585"/>
      <point x="255" y="675"/>
      <point x="211" y="774" type="curve"/>
      <point x="160" y="753"/>
      <point x="134" y="713"/>
      <point x="134" y="713" type="curve"/>
      <point x="177" y="616"/>
      <point x="302" y="540"/>
      <point x="302" y="540" type="curve"/>
    </contour>
  </outline>
</glyph>
<glyph name="ocircumflex" format="1">
  <advance width="506"/>
  <unicode hex="00F4"/>
  <outline>
    <contour>
      <point x="309" y="502" type="curve" smooth="yes"/>
      <point x="130" y="502"/>
      <point x="30" y="345"/>
      <point x="30" y="156" type="curve" smooth="yes"/>
      <point x="30" y="71"/>
      <point x="71" y="-11"/>
      <point x="197" y="-11" type="curve" smooth="yes"/>
      <point x="377" y="-11"/>
      <point x="476" y="144"/>
      <point x="476" y="335" type="curve" smooth="yes"/>
      <point x="476" y="420"/>
      <point x="436" y="502"/>
    </contour>
    <contour>
      <point x="286" y="425" type="curve" smooth="yes"/>
      <point x="330" y="425"/>
      <point x="357" y="404"/>
      <point x="357" y="342" type="curve" smooth="yes"/>
      <point x="357" y="232"/>
      <point x="308" y="66"/>
      <point x="220" y="66" type="curve" smooth="yes"/>
      <point x="176" y="66"/>
      <point x="149" y="87"/>
      <point x="149" y="149" type="curve" smooth="yes"/>
      <point x="149" y="260"/>
      <point x="198" y="425"/>
    </contour>
    <contour>
      <point x="202" y="547" type="line"/>
      <point x="202" y="547"/>
      <point x="264" y="596"/>
      <point x="325" y="644" type="curve"/>
      <point x="377" y="587"/>
      <point x="441" y="548"/>
      <point x="441" y="548" type="curve"/>
      <point x="489" y="593" type="line"/>
      <point x="489" y="593"/>
      <point x="408" y="694"/>
      <point x="351" y="782" type="curve"/>
      <point x="270" y="726"/>
      <point x="152" y="595"/>
      <point x="152" y="595" type="curve"/>
    </contour>
  </outline>
</glyph>
<glyph name="divide" format="1">
  <advance width="525"/>
  <unicode hex="00F7"/>
  <outline>
    <contour>
      <point x="293" y="519" type="curve" smooth="yes"/>
      <point x="253" y="519"/>
      <point x="229" y="489"/>
      <point x="229" y="454" type="curve" smooth="yes"/>
      <point x="229" y="423"/>
      <point x="246" y="401"/>
      <point x="283" y="401" type="curve" smooth="yes"/>
      <point x="321" y="401"/>
      <point x="345" y="430"/>
      <point x="345" y="465" type="curve" smooth="yes"/>
      <point x="345" y="498"/>
      <point x="328" y="519"/>
    </contour>
    <contour>
      <point x="230" y="189" type="curve" smooth="yes"/>
      <point x="191" y="189"/>
      <point x="167" y="160"/>
      <point x="167" y="124" type="curve" smooth="yes"/>
      <point x="167" y="93"/>
      <point x="184" y="71"/>
      <point x="220" y="71" type="curve" smooth="yes"/>
      <point x="259" y="71"/>
      <point x="283" y="100"/>
      <point x="283" y="135" type="curve" smooth="yes"/>
      <point x="283" y="169"/>
      <point x="266" y="189"/>
    </contour>
    <contour>
      <point x="56" y="254" type="line"/>
      <point x="444" y="254" type="line"/>
      <point x="459" y="342" type="line"/>
      <point x="73" y="342" type="line"/>
    </contour>
  </outline>
</glyph>
<glyph name="oslash" format="1">
  <advance width="506"/>
  <unicode hex="00F8"/>
  <outline>
    <contour>
      <point x="309" y="502" type="curve" smooth="yes"/>
      <point x="130" y="502"/>
      <point x="30" y="345"/>
      <point x="30" y="156" type="curve" smooth="yes"/>
      <point x="30" y="112"/>
      <point x="41" y="68"/>
      <point x="69" y="37" type="curve"/>
      <point x="32" y="-20" type="line"/>
      <point x="96" y="-63" type="line"/>
      <point x="135" y="-3" type="line"/>
      <point x="153" y="-8"/>
      <point x="173" y="-11"/>
      <point x="197" y="-11" type="curve" smooth="yes"/>
      <point x="377" y="-11"/>
      <point x="476" y="144"/>
      <point x="476" y="335" type="curve" smooth="yes"/>
      <point x="476" y="379"/>
      <point x="465" y="423"/>
      <point x="436" y="454" type="curve"/>
      <point x="474" y="511" type="line"/>
      <point x="410" y="554" type="line"/>
      <point x="370" y="494" type="line"/>
      <point x="352" y="499"/>
      <point x="332" y="502"/>
    </contour>
    <contour>
      <point x="286" y="427" type="curve" smooth="yes"/>
      <point x="297" y="427"/>
      <point x="311" y="426"/>
      <point x="324" y="423" type="curve"/>
      <point x="144" y="149" type="line"/>
      <point x="144" y="261"/>
      <point x="198" y="427"/>
    </contour>
    <contour>
      <point x="220" y="64" type="curve" smooth="yes"/>
      <point x="208" y="64"/>
      <point x="195" y="65"/>
      <point x="181" y="67" type="curve"/>
      <point x="362" y="341" type="line"/>
      <point x="362" y="230"/>
      <point x="307" y="64"/>
    </contour>
  </outline>
</glyph>
<glyph name="udieresis" format="1">
  <advance width="546"/>
  <unicode hex="00FC"/>
  <outline>
    <contour>
      <point x="101" y="403" type="curve" smooth="yes"/>
      <point x="101" y="309"/>
      <point x="35" y="219"/>
      <point x="35" y="114" type="curve" smooth="yes"/>
      <point x="35" y="40"/>
      <point x="74" y="-8"/>
      <point x="162" y="-8" type="curve" smooth="yes"/>
      <point x="242" y="-8"/>
      <point x="309" y="37"/>
      <point x="349" y="129" type="curve" smooth="yes"/>
      <point x="366" y="169" type="line"/>
      <point x="362" y="135"/>
      <point x="359" y="107"/>
      <point x="359" y="89" type="curve" smooth="yes"/>
      <point x="359" y="47"/>
      <point x="373" y="13"/>
      <point x="393" y="-10" type="curve"/>
      <point x="484" y="26" type="line"/>
      <point x="469" y="48"/>
      <point x="447" y="80"/>
      <point x="447" y="145" type="curve" smooth="yes"/>
      <point x="447" y="172"/>
      <point x="450" y="199"/>
      <point x="458" y="238" type="curve" smooth="yes"/>
      <point x="511" y="490" type="line"/>
      <point x="399" y="490" type="line"/>
      <point x="368" y="331" type="line"/>
      <point x="347" y="221"/>
      <point x="275" y="82"/>
      <point x="203" y="82" type="curve" smooth="yes"/>
      <point x="162" y="82"/>
      <point x="149" y="107"/>
      <point x="149" y="139" type="curve" smooth="yes"/>
      <point x="149" y="226"/>
      <point x="209" y="303"/>
      <point x="209" y="396" type="curve" smooth="yes"/>
      <point x="209" y="428"/>
      <point x="204" y="468"/>
      <point x="190" y="497" type="curve"/>
      <point x="95" y="473" type="line"/>
      <point x="99" y="459"/>
      <point x="101" y="430"/>
    </contour>
    <contour>
      <point x="249" y="689" type="curve" smooth="yes"/>
      <point x="208" y="689"/>
      <point x="183" y="657"/>
      <point x="183" y="621" type="curve" smooth="yes"/>
      <point x="183" y="588"/>
      <point x="200" y="564"/>
      <point x="239" y="564" type="curve" smooth="yes"/>
      <point x="279" y="564"/>
      <point x="305" y="595"/>
      <point x="305" y="630" type="curve" smooth="yes"/>
      <point x="305" y="666"/>
      <point x="287" y="689"/>
    </contour>
    <contour>
      <point x="438" y="689" type="curve" smooth="yes"/>
      <point x="397" y="689"/>
      <point x="372" y="657"/>
      <point x="372" y="621" type="curve" smooth="yes"/>
      <point x="372" y="588"/>
      <point x="389" y="564"/>
      <point x="428" y="564" type="curve" smooth="yes"/>
      <point x="468" y="564"/>
      <point x="494" y="595"/>
      <point x="494" y="630" type="curve" smooth="yes"/>
      <point x="494" y="666"/>
      <point x="476" y="689"/>
    </contour>
  </outline>
</glyph>
<glyph name="oe" format="1">
  <advance width="769"/>
  <unicode hex="0153"/>
  <outline>
    <contour>
      <point x="309" y="502" type="curve" smooth="yes"/>
      <point x="130" y="502"/>
      <point x="30" y="345"/>
      <point x="30" y="156" type="curve" smooth="yes"/>
      <point x="30" y="71"/>
      <point x="71" y="-11"/>
      <point x="197" y="-11" type="curve" smooth="yes"/>
      <point x="273" y="-11"/>
      <point x="331" y="16"/>
      <point x="374" y="64" type="curve"/>
      <point x="392" y="20"/>
      <point x="431" y="-11"/>
      <point x="509" y="-11" type="curve" smooth="yes"/>
      <point x="606" y="-11"/>
      <point x="707" y="39"/>
      <point x="707" y="39" type="curve"/>
      <point x="684" y="111" type="line"/>
      <point x="684" y="111"/>
      <point x="584" y="70"/>
      <point x="532" y="70" type="curve" smooth="yes"/>
      <point x="488" y="70"/>
      <point x="459" y="91"/>
      <point x="459" y="153" type="curve" smooth="yes"/>
      <point x="459" y="164"/>
      <point x="459" y="176"/>
      <point x="460" y="188" type="curve"/>
      <point x="638" y="197"/>
      <point x="765" y="278"/>
      <point x="765" y="394" type="curve" smooth="yes"/>
      <point x="765" y="460"/>
      <point x="724" y="502"/>
      <point x="621" y="502" type="curve" smooth="yes"/>
      <point x="545" y="502"/>
      <point x="485" y="473"/>
      <point x="442" y="425" type="curve"/>
      <point x="425" y="470"/>
      <point x="388" y="502"/>
    </contour>
    <contour>
      <point x="286" y="425" type="curve" smooth="yes"/>
      <point x="330" y="425"/>
      <point x="357" y="404"/>
      <point x="357" y="342" type="curve" smooth="yes"/>
      <point x="357" y="232"/>
      <point x="308" y="66"/>
      <point x="220" y="66" type="curve" smooth="yes"/>
      <point x="176" y="66"/>
      <point x="149" y="87"/>
      <point x="149" y="149" type="curve" smooth="yes"/>
      <point x="149" y="260"/>
      <point x="198" y="425"/>
    </contour>
    <contour>
      <point x="598" y="425" type="curve" smooth="yes"/>
      <point x="636" y="425"/>
      <point x="652" y="407"/>
      <point x="652" y="376" type="curve" smooth="yes"/>
      <point x="652" y="329"/>
      <point x="591" y="267"/>
      <point x="472" y="260" type="curve"/>
      <point x="493" y="346"/>
      <point x="536" y="425"/>
    </contour>
  </outline>
</glyph>
<glyph name="apostrophe" format="1">
  <advance width="298"/>
  <unicode hex="02BC"/>
  <outline>
    <contour>
      <point x="176" y="639" type="curve" smooth="yes"/>
      <point x="176" y="594"/>
      <point x="160" y="540"/>
      <point x="86" y="491" type="curve"/>
      <point x="119" y="436" type="line"/>
      <point x="196" y="472"/>
      <point x="294" y="572"/>
      <point x="294" y="668" type="curve" smooth="yes"/>
      <point x="294" y="702"/>
      <point x="279" y="723"/>
      <point x="241" y="723" type="curve" smooth="yes"/>
      <point x="195" y="723"/>
      <point x="173" y="705"/>
      <point x="173" y="705" type="curve"/>
      <point x="175" y="688"/>
      <point x="176" y="665"/>
    </contour>
  </outline>
</glyph>
<glyph name="ring" format="1">
  <advance width="479"/>
  <unicode hex="02DA"/>
  <outline>
    <contour>
      <point x="250" y="775" type="curve" smooth="yes"/>
      <point x="271" y="775"/>
      <point x="284" y="760"/>
      <point x="284" y="739" type="curve" smooth="yes"/>
      <point x="284" y="704"/>
      <point x="262" y="675"/>
      <point x="231" y="675" type="curve" smooth="yes"/>
      <point x="210" y="675"/>
      <point x="196" y="690"/>
      <point x="196" y="711" type="curve" smooth="yes"/>
      <point x="196" y="743"/>
      <point x="217" y="775"/>
    </contour>
    <contour>
      <point x="220" y="625" type="curve" smooth="yes"/>
      <point x="290" y="625"/>
      <point x="338" y="685"/>
      <point x="338" y="748" type="curve" smooth="yes"/>
      <point x="338" y="794"/>
      <point x="308" y="826"/>
      <point x="261" y="826" type="curve" smooth="yes"/>
      <point x="190" y="826"/>
      <point x="142" y="766"/>
      <point x="142" y="702" type="curve" smooth="yes"/>
      <point x="142" y="656"/>
      <point x="172" y="625"/>
    </contour>
  </outline>
</glyph>
<glyph name="tilde" format="1">
  <advance width="480"/>
  <unicode hex="02DC"/>
  <outline>
    <contour>
      <point x="217" y="498" type="move" name="_top"/>
    </contour>
    <contour>
      <point x="217" y="498" type="move" name="_topUC"/>
    </contour>
    <contour>
      <point x="400" y="680" type="line"/>
      <point x="400" y="680"/>
      <point x="365" y="666"/>
      <point x="321" y="666" type="curve" smooth="yes"/>
      <point x="274" y="666"/>
      <point x="223" y="686"/>
      <point x="176" y="686" type="curve" smooth="yes"/>
      <point x="132" y="686"/>
      <point x="95" y="663"/>
      <point x="95" y="663" type="curve"/>
      <point x="80" y="589" type="line"/>
      <point x="80" y="589"/>
      <point x="116" y="603"/>
      <point x="160" y="603" type="curve" smooth="yes"/>
      <point x="207" y="603"/>
      <point x="258" y="583"/>
      <point x="305" y="583" type="curve" smooth="yes"/>
      <point x="349" y="583"/>
      <point x="386" y="606"/>
      <point x="386" y="606" type="curve"/>
    </contour>
  </outline>
</glyph>
<glyph name="emdash" format="1">
  <advance width="677"/>
  <unicode hex="2014"/>
  <outline>
    <contour>
      <point x="-16" y="278" type="line"/>
      <point x="661" y="278" type="line"/>
      <point x="677" y="360" type="line"/>
      <point x="0" y="360" type="line"/>
    </contour>
  </outline>
</glyph>
<glyph name="quotedblbase" format="1">
  <advance width="443"/>
  <unicode hex="201E"/>
  <outline>
    <contour>
      <point x="46" y="56" type="curve" smooth="yes"/>
      <point x="46" y="11"/>
      <point x="30" y="-43"/>
      <point x="-44" y="-92" type="curve"/>
      <point x="-10" y="-147" type="line"/>
      <point x="66" y="-110"/>
      <point x="164" y="-11"/>
      <point x="164" y="86" type="curve" smooth="yes"/>
      <point x="164" y="119"/>
      <point x="149" y="140"/>
      <point x="111" y="140" type="curve" smooth="yes"/>
      <point x="65" y="140"/>
      <point x="43" y="122"/>
      <point x="43" y="122" type="curve"/>
      <point x="45" y="105"/>
      <point x="46" y="82"/>
    </contour>
    <contour>
      <point x="240" y="56" type="curve" smooth="yes"/>
      <point x="240" y="11"/>
      <point x="223" y="-43"/>
      <point x="149" y="-92" type="curve"/>
      <point x="183" y="-147" type="line"/>
      <point x="259" y="-110"/>
      <point x="357" y="-11"/>
      <point x="357" y="86" type="curve" smooth="yes"/>
      <point x="357" y="119"/>
      <point x="343" y="140"/>
      <point x="304" y="140" type="curve" smooth="yes"/>
      <point x="258" y="140"/>
      <point x="237" y="122"/>
      <point x="237" y="122" type="curve"/>
      <point x="239" y="105"/>
      <point x="240" y="82"/>
    </contour>
  </outline>
</glyph>
<glyph name="guilsinglleft" format="1">
  <advance width="359"/>
  <unicode hex="2039"/>
  <outline>
    <contour>
      <point x="271" y="74" type="line"/>
      <point x="242" y="120"/>
      <point x="197" y="194"/>
      <point x="166" y="244" type="curve"/>
      <point x="324" y="405" type="line"/>
      <point x="278" y="463" type="line"/>
      <point x="279" y="464"/>
      <point x="126" y="343"/>
      <point x="35" y="245" type="curve"/>
      <point x="95" y="147"/>
      <point x="210" y="27"/>
      <point x="210" y="27" type="curve"/>
    </contour>
  </outline>
</glyph>
<glyph name="fraction" format="1">
  <advance width="366"/>
  <unicode hex="2044"/>
  <outline>
    <contour>
      <point x="-65" y="0" type="line"/>
      <point x="35" y="0" type="line"/>
      <point x="411" y="587" type="line"/>
      <point x="310" y="587" type="line"/>
    </contour>
  </outline>
</glyph>
<glyph name="Euro" format="1">
  <advance width="560"/>
  <unicode hex="20AC"/>
  <outline>
    <contour>
      <point x="54" y="336" type="line"/>
      <point x="104" y="336" type="line"/>
      <point x="99" y="314"/>
      <point x="96" y="294"/>
      <point x="94" y="273" type="curve"/>
      <point x="42" y="273" type="line"/>
      <point x="25" y="186" type="line"/>
      <point x="91" y="186" type="line"/>
      <point x="99" y="61"/>
      <point x="164" y="-6"/>
      <point x="270" y="-6" type="curve" smooth="yes"/>
      <point x="346" y="-6"/>
      <point x="401" y="11"/>
      <point x="446" y="30" type="curve"/>
      <point x="426" y="100" type="line"/>
      <point x="395" y="86"/>
      <point x="356" y="74"/>
      <point x="307" y="74" type="curve" smooth="yes"/>
      <point x="249" y="74"/>
      <point x="216" y="121"/>
      <point x="205" y="186" type="curve"/>
      <point x="369" y="186" type="line"/>
      <point x="399" y="273" type="line"/>
      <point x="204" y="273" type="line"/>
      <point x="206" y="293"/>
      <point x="210" y="313"/>
      <point x="215" y="336" type="curve"/>
      <point x="422" y="336" type="line"/>
      <point x="452" y="423" type="line"/>
      <point x="244" y="423" type="line"/>
      <point x="274" y="495"/>
      <point x="321" y="556"/>
      <point x="387" y="556" type="curve" smooth="yes"/>
      <point x="429" y="556"/>
      <point x="450" y="541"/>
      <point x="469" y="506" type="curve"/>
      <point x="545" y="555" type="line"/>
      <point x="526" y="609"/>
      <point x="487" y="643"/>
      <point x="414" y="643" type="curve" smooth="yes"/>
      <point x="272" y="643"/>
      <point x="181" y="542"/>
      <point x="132" y="423" type="curve"/>
      <point x="71" y="423" type="line"/>
    </contour>
  </outline>
</glyph>
